<svg xmlns="http://www.w3.org/2000/svg" xmlns:xlink="http://www.w3.org/1999/xlink" width="300" zoomAndPan="magnify" viewBox="0 0 224.87999 74.999997" height="100" preserveAspectRatio="xMidYMid meet" version="1.0"><defs><g/><clipPath id="id1"><path d="M 5 16.511719 L 42 16.511719 L 42 46.496094 L 5 46.496094 Z M 5 16.511719 " clip-rule="nonzero"/></clipPath><clipPath id="id2"><path d="M 17 28.503906 L 54 28.503906 L 54 58.488281 L 17 58.488281 Z M 17 28.503906 " clip-rule="nonzero"/></clipPath></defs><g fill="#000000" fill-opacity="1"><g transform="translate(57.539848, 44.706778)"><g><path d="M 11.546875 -15.25 L 11.546875 -11.875 L 5.453125 -11.875 L 5.453125 -9.1875 L 9.953125 -9.1875 L 9.953125 -5.96875 L 5.453125 -5.96875 L 5.453125 0 L 1.21875 0 L 1.21875 -15.25 Z M 11.546875 -15.25 "/></g></g></g><g fill="#000000" fill-opacity="1"><g transform="translate(69.668932, 44.706778)"><g><path d="M 12.796875 -6.203125 C 12.796875 -5.867188 12.773438 -5.539062 12.734375 -5.21875 L 4.71875 -5.21875 C 4.757812 -4.550781 4.941406 -4.054688 5.265625 -3.734375 C 5.585938 -3.410156 6.003906 -3.25 6.515625 -3.25 C 7.210938 -3.25 7.710938 -3.5625 8.015625 -4.1875 L 12.546875 -4.1875 C 12.359375 -3.351562 11.992188 -2.609375 11.453125 -1.953125 C 10.910156 -1.296875 10.226562 -0.78125 9.40625 -0.40625 C 8.582031 -0.03125 7.675781 0.15625 6.6875 0.15625 C 5.488281 0.15625 4.421875 -0.09375 3.484375 -0.59375 C 2.554688 -1.101562 1.828125 -1.828125 1.296875 -2.765625 C 0.773438 -3.703125 0.515625 -4.804688 0.515625 -6.078125 C 0.515625 -7.347656 0.773438 -8.445312 1.296875 -9.375 C 1.816406 -10.300781 2.539062 -11.015625 3.46875 -11.515625 C 4.394531 -12.023438 5.46875 -12.28125 6.6875 -12.28125 C 7.882812 -12.28125 8.941406 -12.035156 9.859375 -11.546875 C 10.785156 -11.054688 11.503906 -10.351562 12.015625 -9.4375 C 12.535156 -8.519531 12.796875 -7.441406 12.796875 -6.203125 Z M 8.484375 -7.265625 C 8.484375 -7.785156 8.304688 -8.191406 7.953125 -8.484375 C 7.609375 -8.785156 7.175781 -8.9375 6.65625 -8.9375 C 6.132812 -8.9375 5.707031 -8.796875 5.375 -8.515625 C 5.050781 -8.234375 4.835938 -7.816406 4.734375 -7.265625 Z M 8.484375 -7.265625 "/></g></g></g><g fill="#000000" fill-opacity="1"><g transform="translate(82.98717, 44.706778)"><g><path d="M 12.796875 -6.203125 C 12.796875 -5.867188 12.773438 -5.539062 12.734375 -5.21875 L 4.71875 -5.21875 C 4.757812 -4.550781 4.941406 -4.054688 5.265625 -3.734375 C 5.585938 -3.410156 6.003906 -3.25 6.515625 -3.25 C 7.210938 -3.25 7.710938 -3.5625 8.015625 -4.1875 L 12.546875 -4.1875 C 12.359375 -3.351562 11.992188 -2.609375 11.453125 -1.953125 C 10.910156 -1.296875 10.226562 -0.78125 9.40625 -0.40625 C 8.582031 -0.03125 7.675781 0.15625 6.6875 0.15625 C 5.488281 0.15625 4.421875 -0.09375 3.484375 -0.59375 C 2.554688 -1.101562 1.828125 -1.828125 1.296875 -2.765625 C 0.773438 -3.703125 0.515625 -4.804688 0.515625 -6.078125 C 0.515625 -7.347656 0.773438 -8.445312 1.296875 -9.375 C 1.816406 -10.300781 2.539062 -11.015625 3.46875 -11.515625 C 4.394531 -12.023438 5.46875 -12.28125 6.6875 -12.28125 C 7.882812 -12.28125 8.941406 -12.035156 9.859375 -11.546875 C 10.785156 -11.054688 11.503906 -10.351562 12.015625 -9.4375 C 12.535156 -8.519531 12.796875 -7.441406 12.796875 -6.203125 Z M 8.484375 -7.265625 C 8.484375 -7.785156 8.304688 -8.191406 7.953125 -8.484375 C 7.609375 -8.785156 7.175781 -8.9375 6.65625 -8.9375 C 6.132812 -8.9375 5.707031 -8.796875 5.375 -8.515625 C 5.050781 -8.234375 4.835938 -7.816406 4.734375 -7.265625 Z M 8.484375 -7.265625 "/></g></g></g><g fill="#000000" fill-opacity="1"><g transform="translate(96.305408, 44.706778)"><g><path d="M 0.515625 -6.078125 C 0.515625 -7.328125 0.738281 -8.421875 1.1875 -9.359375 C 1.644531 -10.296875 2.269531 -11.015625 3.0625 -11.515625 C 3.863281 -12.023438 4.742188 -12.28125 5.703125 -12.28125 C 6.484375 -12.28125 7.179688 -12.117188 7.796875 -11.796875 C 8.410156 -11.472656 8.890625 -11.03125 9.234375 -10.46875 L 9.234375 -16 L 13.5 -16 L 13.5 0 L 9.234375 0 L 9.234375 -1.6875 C 8.898438 -1.125 8.429688 -0.675781 7.828125 -0.34375 C 7.222656 -0.0078125 6.507812 0.15625 5.6875 0.15625 C 4.71875 0.15625 3.835938 -0.09375 3.046875 -0.59375 C 2.265625 -1.101562 1.644531 -1.828125 1.1875 -2.765625 C 0.738281 -3.710938 0.515625 -4.816406 0.515625 -6.078125 Z M 9.25 -6.078125 C 9.25 -6.859375 9.035156 -7.46875 8.609375 -7.90625 C 8.191406 -8.351562 7.671875 -8.578125 7.046875 -8.578125 C 6.410156 -8.578125 5.882812 -8.359375 5.46875 -7.921875 C 5.050781 -7.484375 4.84375 -6.867188 4.84375 -6.078125 C 4.84375 -5.296875 5.050781 -4.675781 5.46875 -4.21875 C 5.882812 -3.769531 6.410156 -3.546875 7.046875 -3.546875 C 7.671875 -3.546875 8.191406 -3.769531 8.609375 -4.21875 C 9.035156 -4.664062 9.25 -5.285156 9.25 -6.078125 Z M 9.25 -6.078125 "/></g></g></g><g fill="#000000" fill-opacity="1"><g transform="translate(111.007357, 44.706778)"><g><path d="M 5.453125 -10.4375 C 5.785156 -11.019531 6.253906 -11.472656 6.859375 -11.796875 C 7.460938 -12.117188 8.175781 -12.28125 9 -12.28125 C 9.957031 -12.28125 10.828125 -12.023438 11.609375 -11.515625 C 12.398438 -11.015625 13.023438 -10.296875 13.484375 -9.359375 C 13.941406 -8.421875 14.171875 -7.328125 14.171875 -6.078125 C 14.171875 -4.816406 13.941406 -3.710938 13.484375 -2.765625 C 13.023438 -1.828125 12.398438 -1.101562 11.609375 -0.59375 C 10.828125 -0.09375 9.957031 0.15625 9 0.15625 C 8.175781 0.15625 7.460938 -0.00390625 6.859375 -0.328125 C 6.253906 -0.660156 5.785156 -1.113281 5.453125 -1.6875 L 5.453125 0 L 1.21875 0 L 1.21875 -16 L 5.453125 -16 Z M 9.859375 -6.078125 C 9.859375 -6.867188 9.644531 -7.484375 9.21875 -7.921875 C 8.789062 -8.359375 8.269531 -8.578125 7.65625 -8.578125 C 7.03125 -8.578125 6.503906 -8.351562 6.078125 -7.90625 C 5.660156 -7.46875 5.453125 -6.859375 5.453125 -6.078125 C 5.453125 -5.285156 5.660156 -4.664062 6.078125 -4.21875 C 6.503906 -3.769531 7.03125 -3.546875 7.65625 -3.546875 C 8.269531 -3.546875 8.789062 -3.769531 9.21875 -4.21875 C 9.644531 -4.675781 9.859375 -5.296875 9.859375 -6.078125 Z M 9.859375 -6.078125 "/></g></g></g><g fill="#000000" fill-opacity="1"><g transform="translate(125.709306, 44.706778)"><g><path d="M 0.515625 -6.078125 C 0.515625 -7.328125 0.738281 -8.421875 1.1875 -9.359375 C 1.644531 -10.296875 2.265625 -11.015625 3.046875 -11.515625 C 3.835938 -12.023438 4.71875 -12.28125 5.6875 -12.28125 C 6.519531 -12.28125 7.238281 -12.113281 7.84375 -11.78125 C 8.457031 -11.445312 8.925781 -11 9.25 -10.4375 L 9.25 -12.125 L 13.5 -12.125 L 13.5 0 L 9.25 0 L 9.25 -1.6875 C 8.925781 -1.125 8.457031 -0.675781 7.84375 -0.34375 C 7.226562 -0.0078125 6.507812 0.15625 5.6875 0.15625 C 4.71875 0.15625 3.835938 -0.09375 3.046875 -0.59375 C 2.265625 -1.101562 1.644531 -1.828125 1.1875 -2.765625 C 0.738281 -3.710938 0.515625 -4.816406 0.515625 -6.078125 Z M 9.25 -6.078125 C 9.25 -6.859375 9.035156 -7.46875 8.609375 -7.90625 C 8.191406 -8.351562 7.671875 -8.578125 7.046875 -8.578125 C 6.410156 -8.578125 5.882812 -8.359375 5.46875 -7.921875 C 5.050781 -7.484375 4.84375 -6.867188 4.84375 -6.078125 C 4.84375 -5.296875 5.050781 -4.675781 5.46875 -4.21875 C 5.882812 -3.769531 6.410156 -3.546875 7.046875 -3.546875 C 7.671875 -3.546875 8.191406 -3.769531 8.609375 -4.21875 C 9.035156 -4.664062 9.25 -5.285156 9.25 -6.078125 Z M 9.25 -6.078125 "/></g></g></g><g fill="#000000" fill-opacity="1"><g transform="translate(140.411255, 44.706778)"><g><path d="M 0.515625 -6.078125 C 0.515625 -7.328125 0.773438 -8.421875 1.296875 -9.359375 C 1.816406 -10.296875 2.539062 -11.015625 3.46875 -11.515625 C 4.394531 -12.023438 5.457031 -12.28125 6.65625 -12.28125 C 8.195312 -12.28125 9.492188 -11.859375 10.546875 -11.015625 C 11.597656 -10.171875 12.273438 -8.992188 12.578125 -7.484375 L 8.09375 -7.484375 C 7.832031 -8.273438 7.328125 -8.671875 6.578125 -8.671875 C 6.046875 -8.671875 5.625 -8.453125 5.3125 -8.015625 C 5 -7.578125 4.84375 -6.929688 4.84375 -6.078125 C 4.84375 -5.222656 5 -4.570312 5.3125 -4.125 C 5.625 -3.675781 6.046875 -3.453125 6.578125 -3.453125 C 7.335938 -3.453125 7.84375 -3.851562 8.09375 -4.65625 L 12.578125 -4.65625 C 12.273438 -3.15625 11.597656 -1.976562 10.546875 -1.125 C 9.492188 -0.269531 8.195312 0.15625 6.65625 0.15625 C 5.457031 0.15625 4.394531 -0.09375 3.46875 -0.59375 C 2.539062 -1.101562 1.816406 -1.828125 1.296875 -2.765625 C 0.773438 -3.703125 0.515625 -4.804688 0.515625 -6.078125 Z M 0.515625 -6.078125 "/></g></g></g><g fill="#000000" fill-opacity="1"><g transform="translate(153.534907, 44.706778)"><g><path d="M 8.796875 0 L 5.453125 -4.96875 L 5.453125 0 L 1.21875 0 L 1.21875 -16 L 5.453125 -16 L 5.453125 -7.375 L 8.796875 -12.125 L 13.890625 -12.125 L 9.109375 -6.03125 L 13.96875 0 Z M 8.796875 0 "/></g></g></g><g fill="#000000" fill-opacity="1"><g transform="translate(167.523364, 44.706778)"><g/></g></g><g fill="#000000" fill-opacity="1"><g transform="translate(171.65289, 44.706778)"><g><path d="M 10.859375 -2.484375 L 5.453125 -2.484375 L 4.625 0 L 0.171875 0 L 5.734375 -15.25 L 10.625 -15.25 L 16.15625 0 L 11.671875 0 Z M 9.796875 -5.734375 L 8.15625 -10.65625 L 6.53125 -5.734375 Z M 9.796875 -5.734375 "/></g></g></g><g fill="#000000" fill-opacity="1"><g transform="translate(187.976354, 44.706778)"><g><path d="M 5.453125 -10.4375 C 5.785156 -11 6.253906 -11.445312 6.859375 -11.78125 C 7.460938 -12.113281 8.175781 -12.28125 9 -12.28125 C 9.957031 -12.28125 10.828125 -12.023438 11.609375 -11.515625 C 12.398438 -11.015625 13.023438 -10.296875 13.484375 -9.359375 C 13.941406 -8.421875 14.171875 -7.328125 14.171875 -6.078125 C 14.171875 -4.816406 13.941406 -3.710938 13.484375 -2.765625 C 13.023438 -1.828125 12.398438 -1.101562 11.609375 -0.59375 C 10.828125 -0.09375 9.957031 0.15625 9 0.15625 C 8.175781 0.15625 7.460938 -0.0078125 6.859375 -0.34375 C 6.265625 -0.675781 5.796875 -1.125 5.453125 -1.6875 L 5.453125 5.796875 L 1.21875 5.796875 L 1.21875 -12.125 L 5.453125 -12.125 Z M 9.859375 -6.078125 C 9.859375 -6.867188 9.644531 -7.484375 9.21875 -7.921875 C 8.789062 -8.359375 8.269531 -8.578125 7.65625 -8.578125 C 7.03125 -8.578125 6.503906 -8.351562 6.078125 -7.90625 C 5.660156 -7.46875 5.453125 -6.859375 5.453125 -6.078125 C 5.453125 -5.285156 5.660156 -4.664062 6.078125 -4.21875 C 6.503906 -3.769531 7.03125 -3.546875 7.65625 -3.546875 C 8.269531 -3.546875 8.789062 -3.769531 9.21875 -4.21875 C 9.644531 -4.675781 9.859375 -5.296875 9.859375 -6.078125 Z M 9.859375 -6.078125 "/></g></g></g><g fill="#000000" fill-opacity="1"><g transform="translate(202.678303, 44.706778)"><g><path d="M 5.453125 -10.4375 C 5.785156 -11 6.253906 -11.445312 6.859375 -11.78125 C 7.460938 -12.113281 8.175781 -12.28125 9 -12.28125 C 9.957031 -12.28125 10.828125 -12.023438 11.609375 -11.515625 C 12.398438 -11.015625 13.023438 -10.296875 13.484375 -9.359375 C 13.941406 -8.421875 14.171875 -7.328125 14.171875 -6.078125 C 14.171875 -4.816406 13.941406 -3.710938 13.484375 -2.765625 C 13.023438 -1.828125 12.398438 -1.101562 11.609375 -0.59375 C 10.828125 -0.09375 9.957031 0.15625 9 0.15625 C 8.175781 0.15625 7.460938 -0.0078125 6.859375 -0.34375 C 6.265625 -0.675781 5.796875 -1.125 5.453125 -1.6875 L 5.453125 5.796875 L 1.21875 5.796875 L 1.21875 -12.125 L 5.453125 -12.125 Z M 9.859375 -6.078125 C 9.859375 -6.867188 9.644531 -7.484375 9.21875 -7.921875 C 8.789062 -8.359375 8.269531 -8.578125 7.65625 -8.578125 C 7.03125 -8.578125 6.503906 -8.351562 6.078125 -7.90625 C 5.660156 -7.46875 5.453125 -6.859375 5.453125 -6.078125 C 5.453125 -5.285156 5.660156 -4.664062 6.078125 -4.21875 C 6.503906 -3.769531 7.03125 -3.546875 7.65625 -3.546875 C 8.269531 -3.546875 8.789062 -3.769531 9.21875 -4.21875 C 9.644531 -4.675781 9.859375 -5.296875 9.859375 -6.078125 Z M 9.859375 -6.078125 "/></g></g></g><g clip-path="url(#id1)"><path fill="#1740ff" d="M 23.535156 16.511719 C 13.378906 16.511719 5.398438 22.796875 5.398438 30.535156 C 5.398438 34.40625 8.300781 38.273438 11.441406 40.933594 C 11.203125 43.59375 7.089844 44.800781 5.398438 46.496094 C 9.023438 46.496094 13.378906 45.285156 15.796875 43.351562 C 17.730469 43.835938 21.597656 44.5625 23.777344 44.5625 C 33.929688 44.5625 41.910156 38.273438 41.910156 30.535156 C 41.910156 22.796875 33.691406 16.511719 23.535156 16.511719 Z M 23.535156 16.511719 " fill-opacity="1" fill-rule="nonzero"/></g><g clip-path="url(#id2)"><path fill="#ffbd59" d="M 35.769531 28.503906 C 45.925781 28.503906 53.90625 34.792969 53.90625 42.53125 C 53.90625 46.398438 51.003906 50.265625 47.859375 52.925781 C 48.101562 55.585938 52.210938 56.796875 53.90625 58.488281 C 50.277344 58.488281 45.925781 57.28125 43.507812 55.34375 C 41.574219 55.828125 37.703125 56.554688 35.527344 56.554688 C 25.371094 56.554688 17.390625 50.265625 17.390625 42.53125 C 17.390625 34.792969 25.613281 28.503906 35.769531 28.503906 Z M 35.769531 28.503906 " fill-opacity="1" fill-rule="nonzero"/></g></svg>